# 3ds Max Wavefront OBJ Exporter v0.97b - (c)2007 guruware
# File Created: 22.01.2016 21:56:13

mtllib Storm_Doodad_KingsCrest_BigChunkyRock_04_Sc2.mtl
g
#
# object Mesh_1
#

v  2.8982 -0.0566 -51.6188
v  4.6203 34.7274 -41.9257
v  20.6862 -0.0566 -49.9774
v  22.5925 52.0143 -36.2325
v  19.1484 59.4497 -34.6573
v  25.2908 73.7964 -23.0204
v  0.4850 61.4856 -33.8452
v  5.1789 82.5824 -16.9529
v  24.3549 95.4230 -6.5139
v  -0.8915 45.5119 -38.6687
v  -5.9310 47.1332 -38.0640
v  -3.5063 67.0579 -29.1484
v  -5.4155 73.1542 -17.9608
v  -6.2708 93.2258 2.5255
v  -4.7100 101.2947 13.2467
v  24.7926 118.6968 25.1370
v  8.4042 122.4548 36.9870
v  -7.7481 112.9201 31.0893
v  -9.9827 108.7676 39.1093
v  10.0399 117.6630 42.2396
v  20.1074 106.9591 47.5296
v  25.6220 103.9729 45.6463
v  19.1772 93.3151 51.2387
v  23.5198 60.7542 57.7209
v  28.7839 52.3195 57.1853
v  -11.1317 70.3580 48.6037
v  12.1075 67.9938 55.3538
v  26.1807 45.5493 56.4077
v  -16.1453 84.5463 43.4174
v  -21.7982 65.8369 44.4973
v  -24.5138 56.0171 42.4440
v  -15.5089 39.2428 42.8875
v  10.8635 -0.0566 45.5224
v  -19.8688 42.6926 47.8061
v  -12.1195 -0.0566 46.0955
v  -6.4522 -0.0566 40.7796
v  -27.6382 51.8588 45.0214
v  -39.8885 -0.0566 40.4254
v  -19.8515 -0.0566 47.8435
v  -25.4525 28.2077 -47.3252
v  -0.9347 -0.0566 -57.7209
v  -30.6389 -0.0566 -54.7577
v  0.4994 20.5534 -51.8060
v  -3.0801 42.4680 -44.3763
v  -42.3460 18.5728 4.3387
v  -21.9796 50.3786 -30.1707
v  -18.9127 41.7971 -43.2273
v  -45.9124 -0.0566 -0.3524
v  -28.1067 68.2472 9.4858
v  -18.5153 69.5085 0.2045
v  -15.0798 70.7669 19.0291
v  -11.6674 73.2665 4.9445
v  -8.0015 98.6886 16.0342
v  27.5140 70.9484 46.3748
v  26.8200 84.3534 34.2513
v  26.1519 94.5217 20.1119
v  27.4420 70.5798 1.3506
v  30.4916 27.6807 45.1308
v  31.3670 21.4030 32.3363
v  33.6679 24.2193 28.6243
v  29.9502 71.7950 41.4563
v  29.9560 90.6254 18.5655
v  31.2346 -0.0566 28.4688
v  31.5196 -0.0566 17.0277
v  33.6794 -0.0566 9.2323
v  43.9483 22.1789 -8.1721
v  38.9220 59.6784 11.5048
v  31.0704 69.8339 2.6781
v  45.9124 -0.0566 -16.4662
v  33.7341 -0.0566 -46.5995
v  33.2071 32.4668 -33.3154
v  32.0725 59.3115 -18.2516
v  26.6558 59.1415 -19.1011
v  23.5515 32.5071 -36.9870
v  20.8906 -0.0566 -45.0703
# 75 vertices

vn 0.0886 0.2633 -0.9606
vn 0.0486 0.2627 -0.9637
vn 0.0721 0.2436 -0.9672
vn 0.0629 0.2526 -0.9655
vn 0.2697 0.4668 -0.8422
vn 0.0718 0.6038 -0.7939
vn 0.5118 0.3983 -0.7612
vn -0.1377 0.4644 -0.8748
vn -0.2244 0.6865 -0.6917
vn -0.1582 0.7497 -0.6426
vn -0.0103 0.2876 -0.9577
vn -0.0072 0.2896 -0.9571
vn -0.0873 0.3167 -0.9445
vn -0.5707 0.5238 -0.6324
vn -0.6023 0.6177 -0.5056
vn -0.3247 0.7366 -0.5933
vn -0.2238 0.7941 -0.5651
vn -0.2342 0.7888 -0.5682
vn -0.2326 0.7859 -0.5730
vn -0.2420 0.7869 -0.5677
vn -0.2614 0.7878 -0.5578
vn -0.9258 0.2425 -0.2901
vn -0.5587 0.7898 0.2533
vn -0.3931 0.4761 0.7867
vn 0.0488 0.7878 0.6140
vn 0.0467 0.6225 0.7812
vn 0.5157 0.7088 0.4814
vn 0.2450 0.4876 0.8380
vn 0.4920 0.4443 0.7487
vn 0.0672 0.2437 0.9675
vn 0.0757 0.0717 0.9945
vn 0.4429 0.2212 0.8689
vn -0.3193 0.0666 0.9453
vn -0.2203 0.0602 0.9736
vn -0.2434 -0.1262 0.9617
vn -0.0506 -0.0947 0.9942
vn -0.3148 0.2258 0.9219
vn -0.3499 -0.0251 0.9365
vn -0.0766 0.0752 0.9942
vn 0.2735 0.0359 0.9612
vn -0.2749 -0.1219 0.9537
vn 0.3450 0.2450 0.9061
vn 0.4994 0.0684 0.8637
vn 0.1701 -0.0136 0.9853
vn -0.0018 0.2893 0.9572
vn -0.3461 0.0001 0.9382
vn -0.0660 0.0008 0.9978
vn -0.6053 0.3573 -0.7113
vn 0.3822 0.2263 -0.8959
vn -0.6065 0.3050 -0.7343
vn 0.4599 0.2417 -0.8545
vn 0.8466 0.0938 -0.5239
vn 0.6507 0.3501 -0.6738
vn 0.2632 0.5792 -0.7715
vn 0.4218 0.7229 -0.5473
vn -0.1075 0.8144 -0.5703
vn -0.9687 0.2460 -0.0345
vn -0.5746 0.6718 -0.4676
vn -0.3518 0.5816 -0.7334
vn -0.9335 0.2447 -0.2621
vn -0.9779 0.1508 0.1445
vn -0.9644 0.2133 0.1561
vn -0.6930 0.7204 -0.0265
vn -0.3091 0.8822 -0.3551
vn -0.9097 0.3724 0.1838
vn -0.7540 0.6296 0.1872
vn -0.7908 0.6120 -0.0102
vn -0.7980 0.5580 -0.2277
vn -0.9410 0.2193 -0.2579
vn -0.9314 0.2706 -0.2434
vn -0.8876 0.3624 -0.2842
vn -0.7504 0.5397 -0.3815
vn -0.9384 0.2873 -0.1919
vn -0.9537 0.2400 -0.1811
vn -0.9632 0.2061 -0.1727
vn -0.9525 0.2292 -0.2007
vn 0.9837 0.0879 0.1572
vn 0.9983 0.0582 -0.0009
vn 0.9902 -0.0020 0.1395
vn 0.9555 0.2405 0.1711
vn 0.9666 0.2539 -0.0357
vn 0.9978 0.0614 -0.0253
vn 0.9933 0.0941 -0.0675
vn 0.7472 0.5279 -0.4038
vn 0.9902 0.0692 -0.1214
vn 0.8714 -0.1845 0.4545
vn 0.9705 -0.0784 0.2280
vn 0.9253 -0.1179 0.3604
vn 0.8989 0.2125 0.3832
vn 0.7638 0.6001 -0.2376
vn 0.5883 -0.3253 0.7403
vn 0.5717 -0.3944 0.7195
vn 0.9363 -0.1719 0.3063
vn 0.9683 -0.1525 0.1978
vn 0.9327 -0.1790 0.3130
vn 0.9972 0.0746 -0.0054
vn 0.9804 0.1969 0.0109
vn 0.6719 0.5864 -0.4523
vn 0.9923 0.1094 -0.0582
vn 0.4765 0.2811 -0.8330
vn 0.6885 0.3424 -0.6393
vn 0.5839 0.5977 -0.5494
vn 0.7187 0.4456 -0.5338
vn 0.9646 0.0505 -0.2588
vn 0.7114 0.2457 -0.6585
vn 0.9956 -0.0586 -0.0728
vn 0.7242 0.1098 -0.6808
# 107 vertex normals

vt 0.2402 0.8755 0.0000
vt 0.4121 0.8799 0.0000
vt 0.2441 0.9604 0.0000
vt 0.5000 0.9639 0.0000
vt 0.5327 0.9448 0.0000
vt 0.6167 0.9722 0.0000
vt 0.5405 0.8647 0.0000
vt 0.6597 0.8735 0.0000
vt 0.7466 0.9565 0.0000
vt 0.4653 0.8560 0.0000
vt 0.4746 0.8320 0.0000
vt 0.5693 0.8462 0.0000
vt 0.6182 0.8193 0.0000
vt 0.7554 0.8027 0.0000
vt 0.8203 0.8022 0.0000
vt 0.9341 0.9341 0.0000
vt 0.9795 0.8467 0.0000
vt 0.9194 0.7734 0.0000
vt 0.6016 0.8032 0.0000
vt 0.5576 0.7954 0.0000
vt 0.6328 0.7139 0.0000
vt 0.6011 0.7012 0.0000
vt 0.6729 0.6211 0.0000
vt 0.5562 0.6484 0.0000
vt 0.5513 0.6182 0.0000
vt 0.4917 0.6436 0.0000
vt 0.3472 0.6030 0.0000
vt 0.3110 0.5703 0.0000
vt 0.3706 0.7725 0.0000
vt 0.3711 0.6597 0.0000
vt 0.2754 0.5781 0.0000
vt 0.4365 0.8081 0.0000
vt 0.3442 0.8242 0.0000
vt 0.2959 0.8345 0.0000
vt 0.2188 0.7832 0.0000
vt 0.0425 0.6348 0.0000
vt 0.2261 0.8169 0.0000
vt 0.0273 0.7568 0.0000
vt 0.0322 0.7202 0.0000
vt 0.2720 0.8530 0.0000
vt 0.0190 0.9106 0.0000
vt 0.0234 0.7979 0.0000
vt 0.8491 0.2080 0.0000
vt 0.9204 0.0391 0.0000
vt 0.9854 0.1772 0.0000
vt 0.8276 0.0869 0.0000
vt 0.8950 0.0122 0.0000
vt 0.7437 0.1006 0.0000
vt 0.7446 0.1528 0.0000
vt 0.7114 0.1548 0.0000
vt 0.7163 0.1831 0.0000
vt 0.8623 0.4531 0.0000
vt 0.7412 0.2676 0.0000
vt 0.7798 0.2124 0.0000
vt 0.9502 0.4390 0.0000
vt 0.9238 0.6348 0.0000
vt 0.6245 0.4136 0.0000
vt 0.6274 0.3716 0.0000
vt 0.6606 0.6011 0.0000
vt 0.6338 0.5776 0.0000
vt 0.5850 0.4478 0.0000
vt 0.5859 0.3765 0.0000
vt 0.5947 0.2637 0.0000
vt 0.4902 0.3472 0.0000
vt 0.4541 0.4048 0.0000
vt 0.4409 0.3857 0.0000
vt 0.5854 0.5752 0.0000
vt 0.4980 0.5479 0.0000
vt 0.3887 0.5034 0.0000
vt 0.3755 0.4619 0.0000
vt 0.0723 0.3550 0.0000
vt 0.0796 0.5127 0.0000
vt 0.0215 0.2715 0.0000
vt 0.1318 0.4199 0.0000
vt 0.2021 0.4663 0.0000
vt 0.1743 0.5815 0.0000
vt 0.3291 0.4771 0.0000
vt 0.2998 0.3647 0.0000
vt 0.4067 0.3813 0.0000
vt 0.0732 0.1606 0.0000
vt 0.1294 0.1304 0.0000
vt 0.1523 0.1450 0.0000
vt 0.1006 0.3574 0.0000
vt 0.2051 0.4390 0.0000
vt 0.0176 0.2393 0.0000
vt 0.0171 0.0137 0.0000
vt 0.1426 0.0254 0.0000
vt 0.1992 0.0215 0.0000
vt 0.2388 0.0200 0.0000
vt 0.3257 0.1274 0.0000
vt 0.2402 0.3042 0.0000
vt 0.2866 0.3525 0.0000
vt 0.3647 0.0176 0.0000
vt 0.5117 0.0142 0.0000
vt 0.4468 0.1733 0.0000
vt 0.3711 0.2949 0.0000
vt 0.3906 0.3110 0.0000
vt 0.4785 0.2856 0.0000
vt 0.4971 0.1924 0.0000
vt 0.5918 0.0435 0.0000
vt 0.5688 0.0386 0.0000
# 101 texture coords

g Mesh_1
usemtl Standardmaterial
s 1
f 1/1/1 2/2/2 3/3/1 
s 2
f 2/2/2 4/4/3 3/3/4 
s 3
f 5/5/5 4/4/3 2/2/2 
s 4
f 5/5/5 6/6/6 4/4/7 
s 5
f 7/7/8 6/6/6 5/5/5 
s 6
f 6/6/6 7/7/8 8/8/9 
s 7
f 9/9/10 6/6/6 8/8/9 
s 8
f 7/7/8 5/5/11 2/2/2 
s 9
f 10/10/12 7/7/8 2/2/2 
s 10
f 7/7/8 10/10/12 11/11/13 
s 11
f 7/7/8 11/11/13 12/12/14 
s 12
f 7/7/8 12/12/14 8/8/9 
s 13
f 13/13/15 8/8/9 12/12/14 
s 14
f 8/8/9 13/13/15 14/14/16 
s 15
f 8/8/9 14/14/16 9/9/10 
s 16
f 14/14/17 15/15/18 9/9/10 
s 17
f 16/16/19 9/9/10 15/15/18 
s 18
f 15/15/18 17/17/20 16/16/19 
s 19
f 17/17/20 15/15/18 18/18/21 
s 20
f 13/13/15 12/12/14 11/11/22 
s 21
f 18/19/23 19/20/24 17/21/25 
s 22
f 20/22/26 17/21/25 19/20/24 
s 23
f 17/21/25 20/22/26 16/23/27 
s 24
f 20/22/26 21/24/28 16/23/27 
s 25
f 21/24/28 22/25/29 16/23/27 
s 26
f 22/25/29 21/24/28 23/26/30 
s 27
f 23/26/30 24/27/31 22/25/29 
s 28
f 22/25/29 24/27/31 25/28/32 
s 29
f 23/26/30 20/22/26 19/20/24 
s 30
f 23/26/30 21/24/28 20/22/26 
s 31
f 23/26/30 19/20/24 26/29/33 
s 32
f 27/30/34 23/26/30 26/29/33 
s 33
f 23/26/30 27/30/34 24/27/31 
s 34
f 24/27/31 27/30/34 28/31/35 
s 35
f 28/31/35 25/28/36 24/27/31 
s 36
f 26/29/33 19/20/24 29/32/37 
s 37
f 29/32/37 30/33/38 26/29/33 
s 38
f 30/33/38 31/34/39 26/29/33 
s 39
f 26/29/33 31/34/39 32/35/40 
s 40
f 32/35/40 33/36/41 26/29/33 
s 41
f 33/36/41 27/30/34 26/29/33 
s 42
f 28/31/35 27/30/34 33/36/41 
s 43
f 32/35/40 31/34/39 34/37/42 
s 44
f 34/37/42 35/38/43 32/35/40 
s 45
f 35/38/43 36/39/44 32/35/40 
s 46
f 33/36/41 32/35/40 36/39/44 
s 47
f 37/40/45 34/37/42 31/34/39 
s 48
f 34/37/42 37/40/45 38/41/46 
s 49
f 39/42/47 34/37/42 38/41/46 
s 50
f 35/38/43 34/37/42 39/42/47 
s 51
f 40/43/48 41/44/49 42/45/50 
s 52
f 40/43/48 43/46/51 41/44/49 
s 53
f 41/44/49 43/46/51 1/47/52 
s 54
f 43/46/51 2/48/53 1/47/52 
s 55
f 44/49/54 2/48/53 43/46/51 
s 56
f 2/48/53 44/49/54 10/50/55 
s 57
f 10/50/55 44/49/54 11/51/56 
s 58
f 45/52/57 40/43/48 42/45/50 
s 59
f 45/52/57 46/53/58 40/43/48 
s 60
f 46/53/58 47/54/59 40/43/48 
s 61
f 47/54/59 44/49/54 40/43/48 
s 62
f 44/49/54 43/46/51 40/43/48 
s 63
f 42/45/50 48/55/60 45/52/57 
s 64
f 48/55/61 38/56/62 45/52/57 
s 65
f 49/57/63 45/52/57 38/56/62 
s 66
f 49/57/63 46/53/58 45/52/57 
s 67
f 50/58/64 46/53/58 49/57/63 
s 68
f 11/51/56 46/53/58 50/58/64 
s 69
f 47/54/59 46/53/58 11/51/56 
s 70
f 44/49/54 47/54/59 11/51/56 
s 71
f 49/57/63 38/56/62 37/59/65 
s 72
f 49/57/63 37/59/65 31/60/66 
s 73
f 49/57/63 31/60/66 51/61/67 
s 74
f 49/57/63 51/61/67 50/58/64 
s 75
f 50/58/64 51/61/67 52/62/68 
s 76
f 50/58/64 52/62/68 11/51/56 
s 77
f 13/63/69 11/51/56 52/62/68 
s 78
f 52/62/68 14/64/70 13/63/69 
s 79
f 53/65/71 14/64/70 52/62/68 
s 80
f 14/64/70 53/65/71 15/66/72 
s 81
f 30/67/73 51/61/67 31/60/66 
s 82
f 30/67/73 29/68/74 51/61/67 
s 83
f 51/61/67 29/68/74 53/65/71 
s 84
f 53/65/71 52/62/68 51/61/67 
s 85
f 19/69/75 53/65/71 29/68/74 
s 86
f 19/69/75 18/70/76 53/65/71 
s 87
f 18/70/76 15/66/72 53/65/71 
s 88
f 54/71/77 22/72/78 25/73/79 
s 89
f 55/74/80 22/72/78 54/71/77 
s 90
f 22/72/78 55/74/80 56/75/81 
s 91
f 16/76/82 22/72/78 56/75/81 
s 92
f 9/77/83 16/76/82 56/75/81 
s 93
f 9/77/83 56/75/81 57/78/84 
s 94
f 57/78/84 6/79/85 9/77/83 
s 95
f 54/71/77 25/73/79 58/80/86 
s 96
f 59/81/87 54/71/77 58/80/86 
s 97
f 54/71/77 59/81/87 60/82/88 
s 98
f 54/71/77 60/82/88 61/83/89 
s 99
f 54/71/77 61/83/89 55/74/80 
s 100
f 55/74/80 61/83/89 62/84/90 
s 101
f 62/84/90 56/75/81 55/74/80 
s 102
f 28/85/91 58/80/86 25/73/79 
s 103
f 33/86/92 58/80/86 28/85/91 
s 104
f 33/86/92 63/87/93 58/80/86 
s 105
f 63/87/93 59/81/87 58/80/86 
s 106
f 64/88/94 59/81/87 63/87/93 
s 107
f 59/81/87 64/88/94 60/82/88 
s 108
f 60/82/88 64/88/94 65/89/95 
s 109
f 66/90/96 60/82/88 65/89/95 
s 110
f 67/91/97 60/82/88 66/90/96 
s 111
f 67/91/97 61/83/89 60/82/88 
s 112
f 62/84/90 61/83/89 67/91/97 
s 113
f 68/92/98 62/84/90 67/91/97 
s 114
f 56/75/81 62/84/90 68/92/98 
s 115
f 68/92/98 57/78/84 56/75/81 
s 116
f 66/90/96 65/89/95 69/93/99 
s 117
f 66/90/96 69/93/99 70/94/100 
s 118
f 70/94/100 71/95/101 66/90/96 
s 119
f 67/91/97 66/90/96 71/95/101 
s 120
f 71/95/101 72/96/102 67/91/97 
s 121
f 72/96/102 68/92/98 67/91/97 
s 122
f 68/92/98 72/96/102 57/78/84 
s 123
f 72/96/102 73/97/103 57/78/84 
s 124
f 57/78/84 73/97/103 6/79/85 
s 125
f 4/98/104 6/79/85 73/97/103 
s 126
f 73/97/103 74/99/105 4/98/104 
s 127
f 3/100/106 4/98/104 74/99/105 
s 128
f 74/99/105 71/95/101 70/94/100 
s 129
f 74/99/105 72/96/102 71/95/101 
s 130
f 74/99/105 73/97/103 72/96/102 
s 131
f 74/99/105 70/94/100 75/101/107 
s 132
f 74/99/105 75/101/107 3/100/106 
# 0 polygons - 132 triangles

#
# object Storm_Doodad_KingsCrest_BigChunkyRock_04
#

v  0.0000 0.0720 0.0720
v  0.0000 -0.0720 0.0720
v  0.0000 -0.0720 -0.0720
v  0.0000 0.0720 -0.0720
v  0.7199 0.7199 -0.7199
v  0.7199 -0.7199 -0.7199
v  0.7199 0.7199 0.7199
v  0.7199 -0.7199 0.7199
v  0.0000 0.0000 -0.0000
# 9 vertices

vn 1.0000 0.0000 -0.0000
vn 0.6690 0.0000 0.7433
vn 0.6690 -0.7433 -0.0000
vn 0.6690 0.7433 -0.0000
vn 0.6690 0.0000 -0.7433
vn -0.7071 0.7071 -0.0000
vn -0.7071 0.0000 -0.7071
vn -0.7071 -0.7071 -0.0000
vn -0.7071 0.0000 0.7071
# 9 vertex normals

vt 1.0000 0.0000 0.0000
vt 1.0000 1.0000 0.0000
vt 0.0000 1.0000 0.0000
vt 0.0000 0.0000 0.0000
# 4 texture coords

g Storm_Doodad_KingsCrest_BigChunkyRock_04
usemtl Standardmaterial
s 1
f 76/102/108 77/103/108 78/104/108 79/105/108 
s 2
f 80/102/109 79/103/109 78/104/109 81/105/109 
s 4
f 82/102/110 76/103/110 79/104/110 80/105/110 
s 8
f 77/104/111 83/105/111 81/102/111 78/103/111 
s 16
f 76/104/112 82/105/112 83/102/112 77/103/112 
s 32
f 84/105/113 82/102/113 80/103/113 
s 64
f 84/105/114 80/102/114 81/103/114 
s 128
f 84/105/115 81/102/115 83/103/115 
s 256
f 84/103/116 83/104/116 82/105/116 
# 5 polygons - 4 triangles

g